M48
; DRILL file {KiCad (6.0.5-0)} date 2022 June 05, Sunday 15:31:28
; FORMAT={-:-/ absolute / metric / decimal}
; #@! TF.CreationDate,2022-06-05T15:31:28+08:00
; #@! TF.GenerationSoftware,Kicad,Pcbnew,(6.0.5-0)
; #@! TF.FileFunction,Plated,1,2,PTH
FMAT,2
METRIC
; #@! TA.AperFunction,Plated,PTH,ViaDrill
T1C0.400
; #@! TA.AperFunction,Plated,PTH,ComponentDrill
T2C1.000
; #@! TA.AperFunction,Plated,PTH,ComponentDrill
T3C2.200
%
G90
G05
T1
X216.0Y-83.82
T2
X202.333Y-37.821
X202.333Y-40.361
X202.333Y-42.901
X202.333Y-45.441
X202.333Y-47.981
X202.333Y-50.521
X202.333Y-53.061
X202.333Y-55.601
X202.333Y-58.141
X202.333Y-60.681
X202.333Y-63.221
X202.333Y-65.761
X202.333Y-68.301
X202.333Y-70.841
X202.333Y-73.381
X202.333Y-75.921
X202.333Y-78.461
X202.333Y-81.001
X204.873Y-37.821
X204.873Y-40.361
X204.873Y-42.901
X204.873Y-45.441
X204.873Y-47.981
X204.873Y-50.521
X204.873Y-53.061
X204.873Y-55.601
X204.873Y-58.141
X204.873Y-60.681
X204.873Y-63.221
X204.873Y-65.761
X204.873Y-68.301
X204.873Y-70.841
X204.873Y-73.381
X204.873Y-75.921
X204.873Y-78.461
X204.873Y-81.001
X212.65Y-38.1
X212.65Y-40.64
X212.65Y-43.18
X212.65Y-45.72
X212.65Y-48.26
X212.65Y-50.8
X212.65Y-53.34
X212.65Y-55.88
X212.65Y-58.42
X212.65Y-60.96
X212.65Y-63.5
X212.65Y-66.04
X212.65Y-68.58
X212.65Y-71.12
X212.65Y-73.66
X212.65Y-76.2
X212.65Y-78.74
X212.65Y-81.28
X212.65Y-83.82
X212.65Y-86.36
X230.15Y-38.1
X230.15Y-40.64
X230.15Y-43.18
X230.15Y-45.72
X230.15Y-48.26
X230.15Y-50.8
X230.15Y-53.34
X230.15Y-55.88
X230.15Y-58.42
X230.15Y-60.96
X230.15Y-63.5
X230.15Y-66.04
X230.15Y-68.58
X230.15Y-71.12
X230.15Y-73.66
X230.15Y-76.2
X230.15Y-78.74
X230.15Y-81.28
X230.15Y-83.82
X230.15Y-86.36
X238.223Y-43.151
X238.223Y-45.691
X238.223Y-48.231
X238.223Y-50.771
X238.223Y-53.311
X238.223Y-55.851
X238.223Y-58.391
X238.223Y-60.931
X238.223Y-63.471
X238.223Y-66.011
X238.223Y-68.551
X238.223Y-71.091
X238.223Y-73.631
X238.223Y-76.171
X238.223Y-78.711
X238.223Y-81.251
X238.223Y-83.791
X238.223Y-86.331
X240.763Y-43.151
X240.763Y-45.691
X240.763Y-48.231
X240.763Y-50.771
X240.763Y-53.311
X240.763Y-55.851
X240.763Y-58.391
X240.763Y-60.931
X240.763Y-63.471
X240.763Y-66.011
X240.763Y-68.551
X240.763Y-71.091
X240.763Y-73.631
X240.763Y-76.171
X240.763Y-78.711
X240.763Y-81.251
X240.763Y-83.791
X240.763Y-86.331
T3
X203.06Y-85.526
X240.024Y-38.587
T0
M30
