%TF.GenerationSoftware,KiCad,Pcbnew,(6.0.5-0)*%
%TF.CreationDate,2022-06-05T15:38:57+08:00*%
%TF.ProjectId,SCO_D_V0.2,53434f5f-445f-4563-902e-322e6b696361,rev?*%
%TF.SameCoordinates,Original*%
%TF.FileFunction,Soldermask,Bot*%
%TF.FilePolarity,Negative*%
%FSLAX46Y46*%
G04 Gerber Fmt 4.6, Leading zero omitted, Abs format (unit mm)*
G04 Created by KiCad (PCBNEW (6.0.5-0)) date 2022-06-05 15:38:57*
%MOMM*%
%LPD*%
G01*
G04 APERTURE LIST*
%ADD10R,1.700000X1.700000*%
%ADD11O,1.700000X1.700000*%
%ADD12C,3.800000*%
%ADD13C,2.600000*%
G04 APERTURE END LIST*
D10*
%TO.C,J1*%
X212650000Y-38100000D03*
D11*
X212650000Y-40640000D03*
X212650000Y-43180000D03*
X212650000Y-45720000D03*
X212650000Y-48260000D03*
X212650000Y-50800000D03*
X212650000Y-53340000D03*
X212650000Y-55880000D03*
X212650000Y-58420000D03*
X212650000Y-60960000D03*
X212650000Y-63500000D03*
X212650000Y-66040000D03*
X212650000Y-68580000D03*
X212650000Y-71120000D03*
X212650000Y-73660000D03*
X212650000Y-76200000D03*
X212650000Y-78740000D03*
X212650000Y-81280000D03*
X212650000Y-83820000D03*
X212650000Y-86360000D03*
%TD*%
D12*
%TO.C,SCOD1*%
X203059727Y-85526111D03*
X240024027Y-38586811D03*
D13*
X240024027Y-38586811D03*
D10*
X238223427Y-43150511D03*
D13*
X203059727Y-85526111D03*
D10*
X204873427Y-81000511D03*
D11*
X240763427Y-43150511D03*
X202333427Y-81000511D03*
X204873427Y-78460511D03*
X238223427Y-45690511D03*
X240763427Y-45690511D03*
X202333427Y-78460511D03*
X204873427Y-75920511D03*
X238223427Y-48230511D03*
X240763427Y-48230511D03*
X202333427Y-75920511D03*
X204873427Y-73380511D03*
X238223427Y-50770511D03*
X202333427Y-73380511D03*
X240763427Y-50770511D03*
X238223427Y-53310511D03*
X204873427Y-70840511D03*
X240763427Y-53310511D03*
X202333427Y-70840511D03*
X204873427Y-68300511D03*
X238223427Y-55850511D03*
X240763427Y-55850511D03*
X202333427Y-68300511D03*
X204873427Y-65760511D03*
X238223427Y-58390511D03*
X240763427Y-58390511D03*
X202333427Y-65760511D03*
X238223427Y-60930511D03*
X204873427Y-63220511D03*
X240763427Y-60930511D03*
X202333427Y-63220511D03*
X238223427Y-63470511D03*
X204873427Y-60680511D03*
X202333427Y-60680511D03*
X240763427Y-63470511D03*
X204873427Y-58140511D03*
X238223427Y-66010511D03*
X240763427Y-66010511D03*
X202333427Y-58140511D03*
X238223427Y-68550511D03*
X204873427Y-55600511D03*
X240763427Y-68550511D03*
X202333427Y-55600511D03*
X238223427Y-71090511D03*
X204873427Y-53060511D03*
X202333427Y-53060511D03*
X240763427Y-71090511D03*
X238223427Y-73630511D03*
X204873427Y-50520511D03*
X202333427Y-50520511D03*
X240763427Y-73630511D03*
X204873427Y-47980511D03*
X238223427Y-76170511D03*
X202333427Y-47980511D03*
X240763427Y-76170511D03*
X238223427Y-78710511D03*
X204873427Y-45440511D03*
X240763427Y-78710511D03*
X202333427Y-45440511D03*
X204873427Y-42900511D03*
X238223427Y-81250511D03*
X240763427Y-81250511D03*
X202333427Y-42900511D03*
X238223427Y-83790511D03*
X204873427Y-40360511D03*
X240763427Y-83790511D03*
X202333427Y-40360511D03*
X238223427Y-86330511D03*
X204873427Y-37820511D03*
X240763427Y-86330511D03*
X202333427Y-37820511D03*
%TD*%
D10*
%TO.C,J2*%
X230150000Y-38100000D03*
D11*
X230150000Y-40640000D03*
X230150000Y-43180000D03*
X230150000Y-45720000D03*
X230150000Y-48260000D03*
X230150000Y-50800000D03*
X230150000Y-53340000D03*
X230150000Y-55880000D03*
X230150000Y-58420000D03*
X230150000Y-60960000D03*
X230150000Y-63500000D03*
X230150000Y-66040000D03*
X230150000Y-68580000D03*
X230150000Y-71120000D03*
X230150000Y-73660000D03*
X230150000Y-76200000D03*
X230150000Y-78740000D03*
X230150000Y-81280000D03*
X230150000Y-83820000D03*
X230150000Y-86360000D03*
%TD*%
M02*
