%TF.GenerationSoftware,KiCad,Pcbnew,(6.0.5-0)*%
%TF.CreationDate,2022-06-05T15:38:57+08:00*%
%TF.ProjectId,SCO_D_V0.2,53434f5f-445f-4563-902e-322e6b696361,rev?*%
%TF.SameCoordinates,Original*%
%TF.FileFunction,Legend,Bot*%
%TF.FilePolarity,Positive*%
%FSLAX46Y46*%
G04 Gerber Fmt 4.6, Leading zero omitted, Abs format (unit mm)*
G04 Created by KiCad (PCBNEW (6.0.5-0)) date 2022-06-05 15:38:57*
%MOMM*%
%LPD*%
G01*
G04 APERTURE LIST*
%ADD10C,0.150000*%
%ADD11C,0.300000*%
G04 APERTURE END LIST*
D10*
X226642857Y-64798333D02*
X226690476Y-64750714D01*
X226785714Y-64607857D01*
X226833333Y-64512619D01*
X226880952Y-64369761D01*
X226928571Y-64131666D01*
X226928571Y-63941190D01*
X226880952Y-63703095D01*
X226833333Y-63560238D01*
X226785714Y-63465000D01*
X226690476Y-63322142D01*
X226642857Y-63274523D01*
X225690476Y-64322142D02*
X225738095Y-64369761D01*
X225880952Y-64417380D01*
X225976190Y-64417380D01*
X226119047Y-64369761D01*
X226214285Y-64274523D01*
X226261904Y-64179285D01*
X226309523Y-63988809D01*
X226309523Y-63845952D01*
X226261904Y-63655476D01*
X226214285Y-63560238D01*
X226119047Y-63465000D01*
X225976190Y-63417380D01*
X225880952Y-63417380D01*
X225738095Y-63465000D01*
X225690476Y-63512619D01*
X225357142Y-64798333D02*
X225309523Y-64750714D01*
X225214285Y-64607857D01*
X225166666Y-64512619D01*
X225119047Y-64369761D01*
X225071428Y-64131666D01*
X225071428Y-63941190D01*
X225119047Y-63703095D01*
X225166666Y-63560238D01*
X225214285Y-63465000D01*
X225309523Y-63322142D01*
X225357142Y-63274523D01*
X223880952Y-64369761D02*
X223738095Y-64417380D01*
X223500000Y-64417380D01*
X223404761Y-64369761D01*
X223357142Y-64322142D01*
X223309523Y-64226904D01*
X223309523Y-64131666D01*
X223357142Y-64036428D01*
X223404761Y-63988809D01*
X223500000Y-63941190D01*
X223690476Y-63893571D01*
X223785714Y-63845952D01*
X223833333Y-63798333D01*
X223880952Y-63703095D01*
X223880952Y-63607857D01*
X223833333Y-63512619D01*
X223785714Y-63465000D01*
X223690476Y-63417380D01*
X223452380Y-63417380D01*
X223309523Y-63465000D01*
X222309523Y-64322142D02*
X222357142Y-64369761D01*
X222500000Y-64417380D01*
X222595238Y-64417380D01*
X222738095Y-64369761D01*
X222833333Y-64274523D01*
X222880952Y-64179285D01*
X222928571Y-63988809D01*
X222928571Y-63845952D01*
X222880952Y-63655476D01*
X222833333Y-63560238D01*
X222738095Y-63465000D01*
X222595238Y-63417380D01*
X222500000Y-63417380D01*
X222357142Y-63465000D01*
X222309523Y-63512619D01*
X221690476Y-63417380D02*
X221500000Y-63417380D01*
X221404761Y-63465000D01*
X221309523Y-63560238D01*
X221261904Y-63750714D01*
X221261904Y-64084047D01*
X221309523Y-64274523D01*
X221404761Y-64369761D01*
X221500000Y-64417380D01*
X221690476Y-64417380D01*
X221785714Y-64369761D01*
X221880952Y-64274523D01*
X221928571Y-64084047D01*
X221928571Y-63750714D01*
X221880952Y-63560238D01*
X221785714Y-63465000D01*
X221690476Y-63417380D01*
X220976190Y-63417380D02*
X220404761Y-63417380D01*
X220690476Y-64417380D02*
X220690476Y-63417380D01*
X220214285Y-63417380D02*
X219642857Y-63417380D01*
X219928571Y-64417380D02*
X219928571Y-63417380D01*
X217976190Y-64322142D02*
X218023809Y-64369761D01*
X218166666Y-64417380D01*
X218261904Y-64417380D01*
X218404761Y-64369761D01*
X218500000Y-64274523D01*
X218547619Y-64179285D01*
X218595238Y-63988809D01*
X218595238Y-63845952D01*
X218547619Y-63655476D01*
X218500000Y-63560238D01*
X218404761Y-63465000D01*
X218261904Y-63417380D01*
X218166666Y-63417380D01*
X218023809Y-63465000D01*
X217976190Y-63512619D01*
X217261904Y-63417380D02*
X217261904Y-64131666D01*
X217309523Y-64274523D01*
X217404761Y-64369761D01*
X217547619Y-64417380D01*
X217642857Y-64417380D01*
X216880952Y-63417380D02*
X216214285Y-64417380D01*
X216214285Y-63417380D02*
X216880952Y-64417380D01*
X215785714Y-64369761D02*
X215785714Y-64417380D01*
X215833333Y-64512619D01*
X215880952Y-64560238D01*
X222714285Y-65122619D02*
X222666666Y-65075000D01*
X222571428Y-65027380D01*
X222333333Y-65027380D01*
X222238095Y-65075000D01*
X222190476Y-65122619D01*
X222142857Y-65217857D01*
X222142857Y-65313095D01*
X222190476Y-65455952D01*
X222761904Y-66027380D01*
X222142857Y-66027380D01*
X221523809Y-65027380D02*
X221428571Y-65027380D01*
X221333333Y-65075000D01*
X221285714Y-65122619D01*
X221238095Y-65217857D01*
X221190476Y-65408333D01*
X221190476Y-65646428D01*
X221238095Y-65836904D01*
X221285714Y-65932142D01*
X221333333Y-65979761D01*
X221428571Y-66027380D01*
X221523809Y-66027380D01*
X221619047Y-65979761D01*
X221666666Y-65932142D01*
X221714285Y-65836904D01*
X221761904Y-65646428D01*
X221761904Y-65408333D01*
X221714285Y-65217857D01*
X221666666Y-65122619D01*
X221619047Y-65075000D01*
X221523809Y-65027380D01*
X220809523Y-65122619D02*
X220761904Y-65075000D01*
X220666666Y-65027380D01*
X220428571Y-65027380D01*
X220333333Y-65075000D01*
X220285714Y-65122619D01*
X220238095Y-65217857D01*
X220238095Y-65313095D01*
X220285714Y-65455952D01*
X220857142Y-66027380D01*
X220238095Y-66027380D01*
X219857142Y-65122619D02*
X219809523Y-65075000D01*
X219714285Y-65027380D01*
X219476190Y-65027380D01*
X219380952Y-65075000D01*
X219333333Y-65122619D01*
X219285714Y-65217857D01*
X219285714Y-65313095D01*
X219333333Y-65455952D01*
X219904761Y-66027380D01*
X219285714Y-66027380D01*
D11*
X223761904Y-48475714D02*
X221285714Y-48475714D01*
X221761904Y-48570952D02*
X222047619Y-49332857D01*
X222428571Y-49713809D01*
X222904761Y-49904285D01*
X223571428Y-50094761D01*
X222619047Y-47904285D02*
X223380952Y-49332857D01*
X222428571Y-49618571D01*
X221380952Y-50094761D01*
X219095238Y-50094761D02*
X218428571Y-50094761D01*
X219000000Y-47904285D02*
X219000000Y-50094761D01*
X220333333Y-49618571D02*
X220809523Y-50094761D01*
X218333333Y-49523333D02*
X218428571Y-50094761D01*
X220142857Y-47904285D02*
X220142857Y-49047142D01*
X220333333Y-49618571D01*
X225142857Y-53314761D02*
X225809523Y-52362380D01*
X226285714Y-53314761D02*
X226285714Y-51314761D01*
X225523809Y-51314761D01*
X225333333Y-51410000D01*
X225238095Y-51505238D01*
X225142857Y-51695714D01*
X225142857Y-51981428D01*
X225238095Y-52171904D01*
X225333333Y-52267142D01*
X225523809Y-52362380D01*
X226285714Y-52362380D01*
X223523809Y-53219523D02*
X223714285Y-53314761D01*
X224095238Y-53314761D01*
X224285714Y-53219523D01*
X224380952Y-53029047D01*
X224380952Y-52267142D01*
X224285714Y-52076666D01*
X224095238Y-51981428D01*
X223714285Y-51981428D01*
X223523809Y-52076666D01*
X223428571Y-52267142D01*
X223428571Y-52457619D01*
X224380952Y-52648095D01*
X222761904Y-51981428D02*
X222285714Y-53314761D01*
X221809523Y-51981428D01*
X219142857Y-51314761D02*
X218952380Y-51314761D01*
X218761904Y-51410000D01*
X218666666Y-51505238D01*
X218571428Y-51695714D01*
X218476190Y-52076666D01*
X218476190Y-52552857D01*
X218571428Y-52933809D01*
X218666666Y-53124285D01*
X218761904Y-53219523D01*
X218952380Y-53314761D01*
X219142857Y-53314761D01*
X219333333Y-53219523D01*
X219428571Y-53124285D01*
X219523809Y-52933809D01*
X219619047Y-52552857D01*
X219619047Y-52076666D01*
X219523809Y-51695714D01*
X219428571Y-51505238D01*
X219333333Y-51410000D01*
X219142857Y-51314761D01*
X217619047Y-53124285D02*
X217523809Y-53219523D01*
X217619047Y-53314761D01*
X217714285Y-53219523D01*
X217619047Y-53124285D01*
X217619047Y-53314761D01*
X216761904Y-51505238D02*
X216666666Y-51410000D01*
X216476190Y-51314761D01*
X216000000Y-51314761D01*
X215809523Y-51410000D01*
X215714285Y-51505238D01*
X215619047Y-51695714D01*
X215619047Y-51886190D01*
X215714285Y-52171904D01*
X216857142Y-53314761D01*
X215619047Y-53314761D01*
M02*
