%TF.GenerationSoftware,KiCad,Pcbnew,(6.0.5-0)*%
%TF.CreationDate,2022-06-05T15:38:57+08:00*%
%TF.ProjectId,SCO_D_V0.2,53434f5f-445f-4563-902e-322e6b696361,rev?*%
%TF.SameCoordinates,Original*%
%TF.FileFunction,Profile,NP*%
%FSLAX46Y46*%
G04 Gerber Fmt 4.6, Leading zero omitted, Abs format (unit mm)*
G04 Created by KiCad (PCBNEW (6.0.5-0)) date 2022-06-05 15:38:57*
%MOMM*%
%LPD*%
G01*
G04 APERTURE LIST*
%TA.AperFunction,Profile*%
%ADD10C,0.100000*%
%TD*%
G04 APERTURE END LIST*
%TO.C,SCOD1*%
D10*
X240196393Y-34588390D02*
X240587288Y-34626889D01*
X240972526Y-34703518D01*
X241348399Y-34817538D01*
X241711286Y-34967851D01*
X242057692Y-35153009D01*
X242384282Y-35371229D01*
X242687909Y-35620410D01*
X242965651Y-35898152D01*
X243214831Y-36201780D01*
X243433051Y-36528369D01*
X243618209Y-36874776D01*
X243768521Y-37237663D01*
X243882541Y-37613536D01*
X243959169Y-37998774D01*
X243997669Y-38389669D01*
X244000000Y-38586062D01*
X244000000Y-85586062D01*
X243997614Y-85782451D01*
X243959112Y-86173339D01*
X243882483Y-86558570D01*
X243768464Y-86934436D01*
X243618152Y-87297316D01*
X243432996Y-87643715D01*
X243214778Y-87970298D01*
X242965601Y-88273919D01*
X242687863Y-88551655D01*
X242384241Y-88800831D01*
X242057656Y-89019046D01*
X241711256Y-89204200D01*
X241348375Y-89354510D01*
X240972509Y-89468527D01*
X240587277Y-89545154D01*
X240196389Y-89583653D01*
X240000000Y-89586062D01*
X203000000Y-89586062D01*
X202803611Y-89583653D01*
X202412724Y-89545153D01*
X202027494Y-89468526D01*
X201651629Y-89354508D01*
X201288749Y-89204198D01*
X200942350Y-89019044D01*
X200615767Y-88800828D01*
X200312146Y-88551652D01*
X200034410Y-88273916D01*
X199785234Y-87970295D01*
X199567018Y-87643712D01*
X199381864Y-87297313D01*
X199231554Y-86934433D01*
X199117536Y-86558568D01*
X199040909Y-86173338D01*
X199002409Y-85782451D01*
X199000000Y-85586062D01*
X199000000Y-38586062D01*
X199002336Y-38389669D01*
X199040835Y-37998775D01*
X199117464Y-37613537D01*
X199231483Y-37237664D01*
X199381795Y-36874778D01*
X199566953Y-36528372D01*
X199785172Y-36201782D01*
X200034353Y-35898155D01*
X200312094Y-35620413D01*
X200615721Y-35371233D01*
X200942310Y-35153013D01*
X201288716Y-34967855D01*
X201651603Y-34817542D01*
X202027475Y-34703523D01*
X202412713Y-34626894D01*
X202803607Y-34588394D01*
X203000000Y-34586062D01*
X240000000Y-34586062D01*
X240196393Y-34588390D01*
%TD*%
M02*
