%TF.GenerationSoftware,KiCad,Pcbnew,(6.0.5-0)*%
%TF.CreationDate,2022-06-05T15:38:57+08:00*%
%TF.ProjectId,SCO_D_V0.2,53434f5f-445f-4563-902e-322e6b696361,rev?*%
%TF.SameCoordinates,Original*%
%TF.FileFunction,Legend,Top*%
%TF.FilePolarity,Positive*%
%FSLAX46Y46*%
G04 Gerber Fmt 4.6, Leading zero omitted, Abs format (unit mm)*
G04 Created by KiCad (PCBNEW (6.0.5-0)) date 2022-06-05 15:38:57*
%MOMM*%
%LPD*%
G01*
G04 APERTURE LIST*
%ADD10C,0.200000*%
%ADD11C,0.150000*%
%ADD12C,0.120000*%
G04 APERTURE END LIST*
D10*
X217346614Y-63838934D02*
X217851691Y-64344011D01*
X217919034Y-64478698D01*
X217919034Y-64613385D01*
X217851691Y-64748072D01*
X217784347Y-64815415D01*
X218727156Y-63872606D02*
X218390439Y-64209324D01*
X217683332Y-63502217D01*
X219299576Y-63165499D02*
X219299576Y-63232843D01*
X219232233Y-63367530D01*
X219164889Y-63434873D01*
X219030202Y-63502217D01*
X218895515Y-63502217D01*
X218794500Y-63468545D01*
X218626141Y-63367530D01*
X218525126Y-63266514D01*
X218424111Y-63098156D01*
X218390439Y-62997140D01*
X218390439Y-62862453D01*
X218457782Y-62727766D01*
X218525126Y-62660423D01*
X218659813Y-62593079D01*
X218727156Y-62593079D01*
X219164889Y-62020660D02*
X219669965Y-62525736D01*
X219737309Y-62660423D01*
X219737309Y-62795110D01*
X219669965Y-62929797D01*
X219602622Y-62997140D01*
X220545431Y-62054331D02*
X220208713Y-62391049D01*
X219501607Y-61683942D01*
X221117851Y-61347225D02*
X221117851Y-61414568D01*
X221050507Y-61549255D01*
X220983164Y-61616599D01*
X220848477Y-61683942D01*
X220713790Y-61683942D01*
X220612774Y-61650270D01*
X220444416Y-61549255D01*
X220343400Y-61448240D01*
X220242385Y-61279881D01*
X220208713Y-61178866D01*
X220208713Y-61044179D01*
X220276057Y-60909492D01*
X220343400Y-60842148D01*
X220478087Y-60774805D01*
X220545431Y-60774805D01*
X220983164Y-60202385D02*
X221488240Y-60707461D01*
X221555583Y-60842148D01*
X221555583Y-60976835D01*
X221488240Y-61111522D01*
X221420896Y-61178866D01*
X222363705Y-60236057D02*
X222026988Y-60572774D01*
X221319881Y-59865668D01*
X222936125Y-59528950D02*
X222936125Y-59596294D01*
X222868782Y-59730981D01*
X222801438Y-59798324D01*
X222666751Y-59865668D01*
X222532064Y-59865668D01*
X222431049Y-59831996D01*
X222262690Y-59730981D01*
X222161675Y-59629965D01*
X222060660Y-59461607D01*
X222026988Y-59360591D01*
X222026988Y-59225904D01*
X222094331Y-59091217D01*
X222161675Y-59023874D01*
X222296362Y-58956530D01*
X222363705Y-58956530D01*
X222801438Y-58384111D02*
X223306514Y-58889187D01*
X223373858Y-59023874D01*
X223373858Y-59158561D01*
X223306514Y-59293248D01*
X223239171Y-59360591D01*
X224181980Y-58417782D02*
X223845263Y-58754500D01*
X223138156Y-58047393D01*
X224754400Y-57710675D02*
X224754400Y-57778019D01*
X224687056Y-57912706D01*
X224619713Y-57980049D01*
X224485026Y-58047393D01*
X224350339Y-58047393D01*
X224249324Y-58013721D01*
X224080965Y-57912706D01*
X223979950Y-57811691D01*
X223878934Y-57643332D01*
X223845263Y-57542317D01*
X223845263Y-57407630D01*
X223912606Y-57272943D01*
X223979950Y-57205599D01*
X224114637Y-57138256D01*
X224181980Y-57138256D01*
D11*
X219880952Y-42618571D02*
X219547619Y-42618571D01*
X219547619Y-43142380D02*
X219547619Y-42142380D01*
X220023809Y-42142380D01*
X220595238Y-42142380D02*
X220785714Y-42142380D01*
X220880952Y-42190000D01*
X220976190Y-42285238D01*
X221023809Y-42475714D01*
X221023809Y-42809047D01*
X220976190Y-42999523D01*
X220880952Y-43094761D01*
X220785714Y-43142380D01*
X220595238Y-43142380D01*
X220500000Y-43094761D01*
X220404761Y-42999523D01*
X220357142Y-42809047D01*
X220357142Y-42475714D01*
X220404761Y-42285238D01*
X220500000Y-42190000D01*
X220595238Y-42142380D01*
X222023809Y-43142380D02*
X221690476Y-42666190D01*
X221452380Y-43142380D02*
X221452380Y-42142380D01*
X221833333Y-42142380D01*
X221928571Y-42190000D01*
X221976190Y-42237619D01*
X222023809Y-42332857D01*
X222023809Y-42475714D01*
X221976190Y-42570952D01*
X221928571Y-42618571D01*
X221833333Y-42666190D01*
X221452380Y-42666190D01*
X222452380Y-43047142D02*
X222500000Y-43094761D01*
X222452380Y-43142380D01*
X222404761Y-43094761D01*
X222452380Y-43047142D01*
X222452380Y-43142380D01*
X222452380Y-42523333D02*
X222500000Y-42570952D01*
X222452380Y-42618571D01*
X222404761Y-42570952D01*
X222452380Y-42523333D01*
X222452380Y-42618571D01*
X215785714Y-43752380D02*
X216023809Y-44752380D01*
X216214285Y-44038095D01*
X216404761Y-44752380D01*
X216642857Y-43752380D01*
X217023809Y-44228571D02*
X217357142Y-44228571D01*
X217500000Y-44752380D02*
X217023809Y-44752380D01*
X217023809Y-43752380D01*
X217500000Y-43752380D01*
X217880952Y-44466666D02*
X218357142Y-44466666D01*
X217785714Y-44752380D02*
X218119047Y-43752380D01*
X218452380Y-44752380D01*
X219357142Y-44657142D02*
X219309523Y-44704761D01*
X219166666Y-44752380D01*
X219071428Y-44752380D01*
X218928571Y-44704761D01*
X218833333Y-44609523D01*
X218785714Y-44514285D01*
X218738095Y-44323809D01*
X218738095Y-44180952D01*
X218785714Y-43990476D01*
X218833333Y-43895238D01*
X218928571Y-43800000D01*
X219071428Y-43752380D01*
X219166666Y-43752380D01*
X219309523Y-43800000D01*
X219357142Y-43847619D01*
X219642857Y-43752380D02*
X220214285Y-43752380D01*
X219928571Y-44752380D02*
X219928571Y-43752380D01*
X221261904Y-44704761D02*
X221404761Y-44752380D01*
X221642857Y-44752380D01*
X221738095Y-44704761D01*
X221785714Y-44657142D01*
X221833333Y-44561904D01*
X221833333Y-44466666D01*
X221785714Y-44371428D01*
X221738095Y-44323809D01*
X221642857Y-44276190D01*
X221452380Y-44228571D01*
X221357142Y-44180952D01*
X221309523Y-44133333D01*
X221261904Y-44038095D01*
X221261904Y-43942857D01*
X221309523Y-43847619D01*
X221357142Y-43800000D01*
X221452380Y-43752380D01*
X221690476Y-43752380D01*
X221833333Y-43800000D01*
X222119047Y-43752380D02*
X222690476Y-43752380D01*
X222404761Y-44752380D02*
X222404761Y-43752380D01*
X223023809Y-43752380D02*
X223023809Y-44561904D01*
X223071428Y-44657142D01*
X223119047Y-44704761D01*
X223214285Y-44752380D01*
X223404761Y-44752380D01*
X223500000Y-44704761D01*
X223547619Y-44657142D01*
X223595238Y-44561904D01*
X223595238Y-43752380D01*
X224071428Y-44752380D02*
X224071428Y-43752380D01*
X224309523Y-43752380D01*
X224452380Y-43800000D01*
X224547619Y-43895238D01*
X224595238Y-43990476D01*
X224642857Y-44180952D01*
X224642857Y-44323809D01*
X224595238Y-44514285D01*
X224547619Y-44609523D01*
X224452380Y-44704761D01*
X224309523Y-44752380D01*
X224071428Y-44752380D01*
X225071428Y-44752380D02*
X225071428Y-43752380D01*
X225738095Y-43752380D02*
X225928571Y-43752380D01*
X226023809Y-43800000D01*
X226119047Y-43895238D01*
X226166666Y-44085714D01*
X226166666Y-44419047D01*
X226119047Y-44609523D01*
X226023809Y-44704761D01*
X225928571Y-44752380D01*
X225738095Y-44752380D01*
X225642857Y-44704761D01*
X225547619Y-44609523D01*
X225500000Y-44419047D01*
X225500000Y-44085714D01*
X225547619Y-43895238D01*
X225642857Y-43800000D01*
X225738095Y-43752380D01*
X216761904Y-46362380D02*
X216428571Y-45886190D01*
X216190476Y-46362380D02*
X216190476Y-45362380D01*
X216571428Y-45362380D01*
X216666666Y-45410000D01*
X216714285Y-45457619D01*
X216761904Y-45552857D01*
X216761904Y-45695714D01*
X216714285Y-45790952D01*
X216666666Y-45838571D01*
X216571428Y-45886190D01*
X216190476Y-45886190D01*
X217190476Y-46362380D02*
X217190476Y-45362380D01*
X217571428Y-45362380D01*
X217666666Y-45410000D01*
X217714285Y-45457619D01*
X217761904Y-45552857D01*
X217761904Y-45695714D01*
X217714285Y-45790952D01*
X217666666Y-45838571D01*
X217571428Y-45886190D01*
X217190476Y-45886190D01*
X218142857Y-45457619D02*
X218190476Y-45410000D01*
X218285714Y-45362380D01*
X218523809Y-45362380D01*
X218619047Y-45410000D01*
X218666666Y-45457619D01*
X218714285Y-45552857D01*
X218714285Y-45648095D01*
X218666666Y-45790952D01*
X218095238Y-46362380D01*
X218714285Y-46362380D01*
X219333333Y-45362380D02*
X219428571Y-45362380D01*
X219523809Y-45410000D01*
X219571428Y-45457619D01*
X219619047Y-45552857D01*
X219666666Y-45743333D01*
X219666666Y-45981428D01*
X219619047Y-46171904D01*
X219571428Y-46267142D01*
X219523809Y-46314761D01*
X219428571Y-46362380D01*
X219333333Y-46362380D01*
X219238095Y-46314761D01*
X219190476Y-46267142D01*
X219142857Y-46171904D01*
X219095238Y-45981428D01*
X219095238Y-45743333D01*
X219142857Y-45552857D01*
X219190476Y-45457619D01*
X219238095Y-45410000D01*
X219333333Y-45362380D01*
X220523809Y-45695714D02*
X220523809Y-46362380D01*
X220285714Y-45314761D02*
X220047619Y-46029047D01*
X220666666Y-46029047D01*
X221238095Y-45362380D02*
X221333333Y-45362380D01*
X221428571Y-45410000D01*
X221476190Y-45457619D01*
X221523809Y-45552857D01*
X221571428Y-45743333D01*
X221571428Y-45981428D01*
X221523809Y-46171904D01*
X221476190Y-46267142D01*
X221428571Y-46314761D01*
X221333333Y-46362380D01*
X221238095Y-46362380D01*
X221142857Y-46314761D01*
X221095238Y-46267142D01*
X221047619Y-46171904D01*
X221000000Y-45981428D01*
X221000000Y-45743333D01*
X221047619Y-45552857D01*
X221095238Y-45457619D01*
X221142857Y-45410000D01*
X221238095Y-45362380D01*
X222761904Y-46362380D02*
X222761904Y-45362380D01*
X223142857Y-45362380D01*
X223238095Y-45410000D01*
X223285714Y-45457619D01*
X223333333Y-45552857D01*
X223333333Y-45695714D01*
X223285714Y-45790952D01*
X223238095Y-45838571D01*
X223142857Y-45886190D01*
X222761904Y-45886190D01*
X223761904Y-46362380D02*
X223761904Y-45362380D01*
X224809523Y-46267142D02*
X224761904Y-46314761D01*
X224619047Y-46362380D01*
X224523809Y-46362380D01*
X224380952Y-46314761D01*
X224285714Y-46219523D01*
X224238095Y-46124285D01*
X224190476Y-45933809D01*
X224190476Y-45790952D01*
X224238095Y-45600476D01*
X224285714Y-45505238D01*
X224380952Y-45410000D01*
X224523809Y-45362380D01*
X224619047Y-45362380D01*
X224761904Y-45410000D01*
X224809523Y-45457619D01*
X225428571Y-45362380D02*
X225619047Y-45362380D01*
X225714285Y-45410000D01*
X225809523Y-45505238D01*
X225857142Y-45695714D01*
X225857142Y-46029047D01*
X225809523Y-46219523D01*
X225714285Y-46314761D01*
X225619047Y-46362380D01*
X225428571Y-46362380D01*
X225333333Y-46314761D01*
X225238095Y-46219523D01*
X225190476Y-46029047D01*
X225190476Y-45695714D01*
X225238095Y-45505238D01*
X225333333Y-45410000D01*
X225428571Y-45362380D01*
%TO.C,SCOD1*%
X219039285Y-85329761D02*
X219182142Y-85377380D01*
X219420238Y-85377380D01*
X219515476Y-85329761D01*
X219563095Y-85282142D01*
X219610714Y-85186904D01*
X219610714Y-85091666D01*
X219563095Y-84996428D01*
X219515476Y-84948809D01*
X219420238Y-84901190D01*
X219229761Y-84853571D01*
X219134523Y-84805952D01*
X219086904Y-84758333D01*
X219039285Y-84663095D01*
X219039285Y-84567857D01*
X219086904Y-84472619D01*
X219134523Y-84425000D01*
X219229761Y-84377380D01*
X219467857Y-84377380D01*
X219610714Y-84425000D01*
X220610714Y-85282142D02*
X220563095Y-85329761D01*
X220420238Y-85377380D01*
X220325000Y-85377380D01*
X220182142Y-85329761D01*
X220086904Y-85234523D01*
X220039285Y-85139285D01*
X219991666Y-84948809D01*
X219991666Y-84805952D01*
X220039285Y-84615476D01*
X220086904Y-84520238D01*
X220182142Y-84425000D01*
X220325000Y-84377380D01*
X220420238Y-84377380D01*
X220563095Y-84425000D01*
X220610714Y-84472619D01*
X221229761Y-84377380D02*
X221420238Y-84377380D01*
X221515476Y-84425000D01*
X221610714Y-84520238D01*
X221658333Y-84710714D01*
X221658333Y-85044047D01*
X221610714Y-85234523D01*
X221515476Y-85329761D01*
X221420238Y-85377380D01*
X221229761Y-85377380D01*
X221134523Y-85329761D01*
X221039285Y-85234523D01*
X220991666Y-85044047D01*
X220991666Y-84710714D01*
X221039285Y-84520238D01*
X221134523Y-84425000D01*
X221229761Y-84377380D01*
X222086904Y-85377380D02*
X222086904Y-84377380D01*
X222325000Y-84377380D01*
X222467857Y-84425000D01*
X222563095Y-84520238D01*
X222610714Y-84615476D01*
X222658333Y-84805952D01*
X222658333Y-84948809D01*
X222610714Y-85139285D01*
X222563095Y-85234523D01*
X222467857Y-85329761D01*
X222325000Y-85377380D01*
X222086904Y-85377380D01*
X223610714Y-85377380D02*
X223039285Y-85377380D01*
X223325000Y-85377380D02*
X223325000Y-84377380D01*
X223229761Y-84520238D01*
X223134523Y-84615476D01*
X223039285Y-84663095D01*
D12*
%TO.C,J1*%
X211320000Y-36770000D02*
X212650000Y-36770000D01*
X211320000Y-39370000D02*
X213980000Y-39370000D01*
X211320000Y-87690000D02*
X213980000Y-87690000D01*
X211320000Y-39370000D02*
X211320000Y-87690000D01*
X211320000Y-38100000D02*
X211320000Y-36770000D01*
X213980000Y-39370000D02*
X213980000Y-87690000D01*
%TO.C,SCOD1*%
X203603427Y-79730511D02*
X203603427Y-82330511D01*
X236893427Y-44420511D02*
X236893427Y-87660511D01*
X242093427Y-41820511D02*
X242093427Y-87660511D01*
X201003427Y-82330511D02*
X201003427Y-36490511D01*
X236893427Y-41820511D02*
X238223427Y-41820511D01*
X236893427Y-44420511D02*
X239493427Y-44420511D01*
X239493427Y-41820511D02*
X242093427Y-41820511D01*
X206203427Y-79730511D02*
X206203427Y-36490511D01*
X236893427Y-43150511D02*
X236893427Y-41820511D01*
X206203427Y-81000511D02*
X206203427Y-82330511D01*
X206203427Y-82330511D02*
X204873427Y-82330511D01*
X203603427Y-82330511D02*
X201003427Y-82330511D01*
X206203427Y-79730511D02*
X203603427Y-79730511D01*
X236893427Y-87660511D02*
X242093427Y-87660511D01*
X239493427Y-44420511D02*
X239493427Y-41820511D01*
X206203427Y-36490511D02*
X201003427Y-36490511D01*
%TO.C,J2*%
X228820000Y-38100000D02*
X228820000Y-36770000D01*
X228820000Y-36770000D02*
X230150000Y-36770000D01*
X228820000Y-39370000D02*
X231480000Y-39370000D01*
X228820000Y-87690000D02*
X231480000Y-87690000D01*
X228820000Y-39370000D02*
X228820000Y-87690000D01*
X231480000Y-39370000D02*
X231480000Y-87690000D01*
%TD*%
M02*
